<svg width="512" height="512" viewBox="0 0 512 512" xmlns="http://www.w3.org/2000/svg" version="1.1">
    <!-- part A -->
    <polygon points="34.29749663118372,128 34.29749663118372,384 228.28718707889797,480,228.28718707889797,368 145.14874831559186,320 145.14874831559186,269.856406460551 200.57437415779594,269.856406460551 200.57437415779594,288 256,320 256,256 200.57437415779594,224 200.57437415779594,242.14359353944897 145.14874831559186,242.14359353944897 145.14874831559186,192" fill="#428bca" />
    <!-- part B -->
    <polygon points="34.29749663118372,128 256,0 477.7025033688163,128 366.8512516844081,192 256,128 145.14874831559186,192" fill="#4186c2" />
    <polygon points="200.57437415779594,224 256,256 311.42562584220406,224 256,192" fill="#4186c2" />
    <!-- part C -->
    <polygon points="477.7025033688163,128 366.8512516844081,192 366.8512516844081,242.14359353944897 311.42562584220406,242.14359353944897 311.42562584220406,224 256,256 256,320 311.42562584220406,288 311.42562584220406,269.856406460551 366.8512516844081,269.856406460551 366.8512516844081,320 283.71281292110206,368 283.71281292110206,480 477.7025033688163,384" fill="#3f81ba" />
</svg>